<svg width="185.401" height="35.841" viewBox="0 0 185.401 35.841" xmlns="http://www.w3.org/2000/svg"><g id="svgGroup" stroke-linecap="round" fill-rule="evenodd" font-size="9pt" stroke="#ffffff" stroke-width="0.25mm" fill="#ffffff" style="stroke:#ffffff;stroke-width:0.25mm;fill:#ffffff"><path d="M 94.776 35.352 L 89.771 35.352 A 0.65 0.65 0 0 1 89.624 35.337 Q 89.423 35.29 89.388 35.097 A 0.489 0.489 0 0 1 89.38 35.01 L 89.332 0.952 Q 89.332 0.642 89.578 0.578 A 0.576 0.576 0 0 1 89.722 0.562 L 94.239 0.562 L 102.686 20.264 L 102.442 0.952 A 0.496 0.496 0 0 1 102.466 0.791 Q 102.545 0.562 102.881 0.562 L 107.837 0.562 A 0.308 0.308 0 0 1 107.972 0.589 Q 108.13 0.666 108.13 0.952 L 108.179 35.059 A 0.514 0.514 0 0 1 108.169 35.168 Q 108.135 35.325 107.989 35.348 A 0.343 0.343 0 0 1 107.935 35.352 L 103.541 35.352 L 94.874 16.944 L 95.24 34.961 Q 95.24 35.325 94.839 35.35 A 0.991 0.991 0 0 1 94.776 35.352 Z M 0.001 25.806 L 0.001 9.961 Q 0.001 7.227 1.343 4.981 A 10.144 10.144 0 0 1 4.883 1.355 A 9.156 9.156 0 0 1 9.742 0 A 9.92 9.92 0 0 1 13.206 0.595 A 9.237 9.237 0 0 1 14.722 1.319 A 10.006 10.006 0 0 1 18.25 4.908 Q 19.556 7.154 19.556 9.961 L 19.556 12.256 A 0.221 0.221 0 0 1 19.541 12.342 Q 19.495 12.451 19.312 12.451 L 13.697 12.451 A 0.281 0.281 0 0 1 13.62 12.442 Q 13.533 12.417 13.51 12.329 A 0.288 0.288 0 0 1 13.502 12.256 L 13.502 10.352 A 5.541 5.541 0 0 0 13.314 8.875 A 4.258 4.258 0 0 0 12.427 7.202 Q 11.353 5.957 9.742 5.957 A 3.276 3.276 0 0 0 7.613 6.745 A 4.601 4.601 0 0 0 7.178 7.154 A 3.969 3.969 0 0 0 6.055 9.961 L 6.055 25.806 Q 6.055 27.442 7.154 28.626 A 3.896 3.896 0 0 0 8.15 29.414 A 3.287 3.287 0 0 0 9.742 29.81 A 3.665 3.665 0 0 0 11.281 29.492 A 3.588 3.588 0 0 0 12.427 28.65 A 3.999 3.999 0 0 0 13.499 25.963 A 5.17 5.17 0 0 0 13.502 25.806 L 13.502 23.34 L 10.01 23.34 Q 9.742 23.34 9.742 23.096 L 9.742 17.505 A 0.317 0.317 0 0 1 9.756 17.404 Q 9.804 17.264 10.003 17.261 A 0.58 0.58 0 0 1 10.01 17.261 L 19.361 17.261 A 0.221 0.221 0 0 1 19.446 17.276 Q 19.556 17.322 19.556 17.505 L 19.556 25.806 A 10.293 10.293 0 0 1 18.961 29.336 A 9.553 9.553 0 0 1 18.238 30.884 Q 16.895 33.155 14.698 34.497 A 9.215 9.215 0 0 1 10.169 35.832 A 11.075 11.075 0 0 1 9.742 35.84 A 9.379 9.379 0 0 1 6.269 35.205 A 8.868 8.868 0 0 1 4.859 34.497 Q 2.662 33.155 1.331 30.884 A 9.777 9.777 0 0 1 0.006 26.155 A 11.642 11.642 0 0 1 0.001 25.806 Z M 161.06 35.352 L 155.396 35.352 A 0.221 0.221 0 0 1 155.311 35.337 Q 155.201 35.291 155.201 35.108 L 155.298 0.757 A 0.281 0.281 0 0 1 155.308 0.68 Q 155.333 0.593 155.421 0.57 A 0.288 0.288 0 0 1 155.494 0.562 L 165.601 0.562 Q 168.311 0.562 170.582 1.88 A 10.144 10.144 0 0 1 174.207 5.42 A 9.328 9.328 0 0 1 175.548 9.885 A 11.281 11.281 0 0 1 175.562 10.45 A 10.322 10.322 0 0 1 175.389 12.376 A 8.362 8.362 0 0 1 175.001 13.77 Q 174.479 15.154 173.798 16.138 A 7.807 7.807 0 0 1 173.694 16.284 A 12.757 12.757 0 0 1 173.242 16.873 Q 172.759 17.462 172.339 17.798 Q 175.049 20.801 175.049 24.854 L 175.098 35.108 Q 175.098 35.301 174.944 35.341 A 0.36 0.36 0 0 1 174.854 35.352 L 169.19 35.352 A 0.383 0.383 0 0 1 169.119 35.346 Q 169.002 35.324 168.995 35.218 A 0.205 0.205 0 0 1 168.995 35.205 L 168.995 24.854 Q 168.995 23.047 167.725 21.729 A 4.155 4.155 0 0 0 164.716 20.412 A 5.146 5.146 0 0 0 164.6 20.41 L 161.304 20.41 L 161.255 35.108 Q 161.255 35.33 161.094 35.35 A 0.274 0.274 0 0 1 161.06 35.352 Z M 110.84 35.108 L 117.042 0.757 Q 117.085 0.583 117.246 0.564 A 0.348 0.348 0 0 1 117.286 0.562 L 124.537 0.562 A 0.292 0.292 0 0 1 124.635 0.577 Q 124.746 0.617 124.781 0.757 L 130.738 35.108 A 0.498 0.498 0 0 1 130.74 35.137 Q 130.749 35.352 130.543 35.352 L 125.001 35.352 Q 124.794 35.352 124.745 35.177 A 0.404 0.404 0 0 1 124.732 35.108 L 124.195 31.446 L 117.383 31.446 L 116.846 35.108 A 0.405 0.405 0 0 1 116.825 35.206 Q 116.772 35.352 116.602 35.352 L 111.036 35.352 A 0.221 0.221 0 0 1 110.95 35.337 Q 110.84 35.291 110.84 35.108 Z M 132.178 35.108 L 138.379 0.757 Q 138.423 0.583 138.584 0.564 A 0.348 0.348 0 0 1 138.624 0.562 L 145.875 0.562 A 0.292 0.292 0 0 1 145.973 0.577 Q 146.084 0.617 146.119 0.757 L 152.076 35.108 A 0.498 0.498 0 0 1 152.078 35.137 Q 152.087 35.352 151.88 35.352 L 146.338 35.352 Q 146.132 35.352 146.083 35.177 A 0.404 0.404 0 0 1 146.07 35.108 L 145.533 31.446 L 138.721 31.446 L 138.184 35.108 A 0.405 0.405 0 0 1 138.163 35.206 Q 138.11 35.352 137.94 35.352 L 132.374 35.352 A 0.221 0.221 0 0 1 132.288 35.337 Q 132.178 35.291 132.178 35.108 Z M 62.256 35.352 L 46.094 35.352 A 0.221 0.221 0 0 1 46.009 35.337 Q 45.899 35.291 45.899 35.108 L 45.948 0.806 Q 45.948 0.612 46.102 0.572 A 0.36 0.36 0 0 1 46.192 0.562 L 51.758 0.562 Q 51.952 0.562 51.992 0.716 A 0.36 0.36 0 0 1 52.003 0.806 L 51.954 29.2 L 62.256 29.2 Q 62.45 29.2 62.49 29.353 A 0.36 0.36 0 0 1 62.501 29.444 L 62.501 35.108 Q 62.501 35.301 62.347 35.341 A 0.36 0.36 0 0 1 62.256 35.352 Z M 74.952 35.303 L 65.992 35.352 Q 65.798 35.352 65.758 35.198 A 0.36 0.36 0 0 1 65.748 35.108 L 65.845 0.757 A 0.281 0.281 0 0 1 65.855 0.68 Q 65.88 0.593 65.968 0.57 A 0.288 0.288 0 0 1 66.041 0.562 L 75.391 0.513 A 10.89 10.89 0 0 1 75.678 0.509 Q 78.291 0.509 80.42 1.783 A 10.182 10.182 0 0 1 84.046 5.408 A 9.693 9.693 0 0 1 85.401 10.45 L 85.401 24.805 Q 85.401 27.686 84.009 30.078 Q 82.593 32.447 80.25 33.85 A 10.273 10.273 0 0 1 75.681 35.27 A 12.338 12.338 0 0 1 74.952 35.303 Z M 22.486 25.806 L 22.535 9.961 A 9.887 9.887 0 0 1 23.099 6.588 A 9.115 9.115 0 0 1 23.878 4.956 A 10.141 10.141 0 0 1 27.442 1.355 A 9.281 9.281 0 0 1 32.325 0 A 9.538 9.538 0 0 1 35.598 0.551 A 8.808 8.808 0 0 1 37.232 1.343 Q 39.429 2.686 40.76 4.944 A 9.695 9.695 0 0 1 42.09 9.94 A 11.374 11.374 0 0 1 42.09 9.961 L 42.139 25.806 Q 42.139 28.54 40.821 30.811 A 10.386 10.386 0 0 1 37.256 34.473 A 9.224 9.224 0 0 1 32.325 35.84 A 9.262 9.262 0 0 1 27.418 34.473 A 10.522 10.522 0 0 1 23.841 30.823 A 9.648 9.648 0 0 1 22.486 25.806 Z M 185.206 35.352 L 179.542 35.352 Q 179.348 35.352 179.308 35.198 A 0.36 0.36 0 0 1 179.297 35.108 L 179.346 0.757 A 0.281 0.281 0 0 1 179.356 0.68 Q 179.381 0.593 179.469 0.57 A 0.288 0.288 0 0 1 179.542 0.562 L 185.157 0.562 A 0.281 0.281 0 0 1 185.234 0.572 Q 185.321 0.596 185.344 0.685 A 0.288 0.288 0 0 1 185.352 0.757 L 185.401 35.108 Q 185.401 35.33 185.239 35.35 A 0.274 0.274 0 0 1 185.206 35.352 Z M 75.391 6.494 L 71.9 6.543 L 71.851 29.2 L 74.952 29.2 A 4.376 4.376 0 0 0 76.806 28.813 A 4.294 4.294 0 0 0 78.077 27.906 Q 79.346 26.612 79.346 24.805 L 79.346 10.401 A 3.806 3.806 0 0 0 78.211 7.667 A 4.936 4.936 0 0 0 78.174 7.63 A 3.866 3.866 0 0 0 76.948 6.777 Q 76.284 6.493 75.518 6.493 A 4.19 4.19 0 0 0 75.391 6.494 Z M 36.085 25.806 L 36.036 9.961 A 4.342 4.342 0 0 0 35.774 8.432 A 3.901 3.901 0 0 0 34.986 7.154 A 3.426 3.426 0 0 0 32.487 6.009 A 4.409 4.409 0 0 0 32.325 6.006 A 3.548 3.548 0 0 0 29.74 7.077 A 4.442 4.442 0 0 0 29.688 7.129 Q 28.589 8.252 28.589 9.961 L 28.589 25.806 Q 28.589 27.442 29.688 28.626 A 3.777 3.777 0 0 0 30.812 29.474 A 3.431 3.431 0 0 0 32.325 29.81 A 3.375 3.375 0 0 0 34.693 28.849 A 4.652 4.652 0 0 0 34.962 28.577 A 4.443 4.443 0 0 0 35.768 27.354 A 3.85 3.85 0 0 0 36.085 25.806 Z M 123.194 26.099 L 121.143 12.061 L 120.85 10.205 L 120.63 12.061 L 118.384 26.099 L 123.194 26.099 Z M 144.532 26.099 L 142.481 12.061 L 142.188 10.205 L 141.968 12.061 L 139.722 26.099 L 144.532 26.099 Z M 165.601 6.543 L 161.304 6.543 L 161.304 14.405 L 165.601 14.405 A 3.817 3.817 0 0 0 168.118 13.462 A 5.012 5.012 0 0 0 168.348 13.257 A 3.713 3.713 0 0 0 169.555 10.566 A 4.489 4.489 0 0 0 169.556 10.45 A 3.726 3.726 0 0 0 168.423 7.742 A 4.785 4.785 0 0 0 168.384 7.703 A 3.958 3.958 0 0 0 166.927 6.765 A 3.909 3.909 0 0 0 165.601 6.543 Z" vector-effect="non-scaling-stroke"/></g></svg>