<svg width="130.521" height="20.545" viewBox="0 0 130.521 20.545" xmlns="http://www.w3.org/2000/svg"><g id="svgGroup" stroke-linecap="round" fill-rule="evenodd" font-size="9pt" stroke="#00ffad" stroke-width="0.25mm" fill="#00ffad" style="stroke:#00ffad;stroke-width:0.25mm;fill:#00ffad"><path d="M 80.829 20.275 L 76.106 20.275 L 67.706 5.431 A 73.932 73.932 0 0 1 67.812 6.458 Q 67.931 7.714 67.967 8.619 A 21.186 21.186 0 0 1 67.976 8.906 L 67.976 20.275 L 64.4 20.275 L 64.4 1.012 L 68.988 1.012 L 77.523 15.957 A 46.738 46.738 0 0 1 77.338 13.992 A 34.364 34.364 0 0 1 77.253 12.212 L 77.253 1.012 L 80.829 1.012 L 80.829 20.275 Z M 15.215 15.754 L 15.215 13.089 L 10.492 13.089 L 10.492 10.12 L 18.892 10.12 L 18.892 17.205 A 9.115 9.115 0 0 1 16.658 18.892 A 12.107 12.107 0 0 1 14.911 19.667 A 15.268 15.268 0 0 1 9.75 20.545 Q 6.057 20.545 3.704 18.934 A 7.72 7.72 0 0 1 2.53 17.947 Q 0 15.349 0 10.559 Q 0 6.951 1.466 4.614 A 7.702 7.702 0 0 1 2.547 3.255 A 8.235 8.235 0 0 1 6.171 1.179 Q 7.475 0.804 9.037 0.728 A 16.723 16.723 0 0 1 9.851 0.708 Q 16.632 0.708 18.487 5.735 L 14.776 6.848 A 4.695 4.695 0 0 0 13.77 5.321 A 4.442 4.442 0 0 0 12.887 4.639 A 5.369 5.369 0 0 0 11.001 3.969 A 7.107 7.107 0 0 0 9.851 3.88 A 7.388 7.388 0 0 0 8.137 4.067 A 4.78 4.78 0 0 0 5.533 5.617 Q 4.3 7.06 4.091 9.517 A 12.324 12.324 0 0 0 4.049 10.559 A 11.213 11.213 0 0 0 4.206 12.501 Q 4.394 13.569 4.806 14.416 A 5.419 5.419 0 0 0 5.584 15.602 A 5.007 5.007 0 0 0 8.579 17.263 A 7.366 7.366 0 0 0 9.885 17.373 A 10.241 10.241 0 0 0 12.938 16.918 A 8.885 8.885 0 0 0 13.908 16.558 Q 14.696 16.208 15.215 15.754 Z M 89.364 11.369 L 92.569 11.301 L 92.569 10.559 A 6.672 6.672 0 0 0 92.529 9.802 Q 92.436 8.99 92.127 8.495 A 1.864 1.864 0 0 0 92.063 8.4 A 1.6 1.6 0 0 0 91.18 7.791 Q 90.84 7.692 90.41 7.692 A 3.774 3.774 0 0 0 89.849 7.73 Q 89.193 7.829 88.841 8.181 A 1.704 1.704 0 0 0 88.519 8.647 Q 88.307 9.082 88.223 9.74 A 5.813 5.813 0 0 0 88.217 9.783 L 84.203 9.581 Q 84.574 7.422 86.176 6.308 A 5.638 5.638 0 0 1 87.841 5.538 Q 89.026 5.195 90.579 5.195 Q 92.612 5.195 93.97 5.925 A 4.611 4.611 0 0 1 94.897 6.578 A 4.485 4.485 0 0 1 96.235 8.902 Q 96.415 9.644 96.415 10.525 L 96.415 15.889 A 9.092 9.092 0 0 0 96.431 16.457 Q 96.464 16.986 96.565 17.321 A 1.396 1.396 0 0 0 96.685 17.61 A 0.895 0.895 0 0 0 97.299 18.048 A 1.527 1.527 0 0 0 97.629 18.082 Q 98.068 18.082 98.473 18.014 L 98.473 20.072 A 6.913 6.913 0 0 0 98.152 20.144 A 5.151 5.151 0 0 0 97.865 20.224 A 3.061 3.061 0 0 1 97.309 20.342 A 91.916 91.916 0 0 1 96.737 20.408 A 100.382 100.382 0 0 1 96.718 20.41 Q 96.458 20.439 96.122 20.443 A 9.211 9.211 0 0 1 96.01 20.443 Q 95.085 20.443 94.469 20.156 A 2.032 2.032 0 0 1 93.868 19.735 A 2.585 2.585 0 0 1 93.335 18.906 Q 93.189 18.553 93.108 18.119 A 5.532 5.532 0 0 1 93.041 17.643 L 92.974 17.643 A 6.209 6.209 0 0 1 91.598 19.339 Q 90.292 20.441 88.436 20.536 A 6.948 6.948 0 0 1 88.082 20.545 A 6.445 6.445 0 0 1 86.74 20.413 Q 85.884 20.231 85.237 19.796 A 3.679 3.679 0 0 1 84.726 19.381 Q 83.528 18.217 83.528 16.092 Q 83.528 13.798 85.029 12.6 A 5.006 5.006 0 0 1 86.598 11.775 Q 87.77 11.388 89.364 11.369 Z M 104.916 11.369 L 108.121 11.301 L 108.121 10.559 A 6.672 6.672 0 0 0 108.081 9.802 Q 107.988 8.99 107.678 8.495 A 1.864 1.864 0 0 0 107.615 8.4 A 1.6 1.6 0 0 0 106.732 7.791 Q 106.392 7.692 105.962 7.692 A 3.774 3.774 0 0 0 105.401 7.73 Q 104.745 7.829 104.393 8.181 A 1.704 1.704 0 0 0 104.071 8.647 Q 103.859 9.082 103.774 9.74 A 5.813 5.813 0 0 0 103.769 9.783 L 99.755 9.581 Q 100.126 7.422 101.728 6.308 A 5.638 5.638 0 0 1 103.393 5.538 Q 104.577 5.195 106.13 5.195 Q 108.164 5.195 109.521 5.925 A 4.611 4.611 0 0 1 110.449 6.578 A 4.485 4.485 0 0 1 111.787 8.902 Q 111.967 9.644 111.967 10.525 L 111.967 15.889 A 9.092 9.092 0 0 0 111.983 16.457 Q 112.016 16.986 112.117 17.321 A 1.396 1.396 0 0 0 112.237 17.61 A 0.895 0.895 0 0 0 112.851 18.048 A 1.527 1.527 0 0 0 113.181 18.082 Q 113.62 18.082 114.024 18.014 L 114.024 20.072 A 6.913 6.913 0 0 0 113.704 20.144 A 5.151 5.151 0 0 0 113.417 20.224 A 3.061 3.061 0 0 1 112.861 20.342 A 91.916 91.916 0 0 1 112.289 20.408 A 100.382 100.382 0 0 1 112.27 20.41 Q 112.009 20.439 111.674 20.443 A 9.211 9.211 0 0 1 111.562 20.443 Q 110.637 20.443 110.021 20.156 A 2.032 2.032 0 0 1 109.42 19.735 A 2.585 2.585 0 0 1 108.887 18.906 Q 108.74 18.553 108.66 18.119 A 5.532 5.532 0 0 1 108.593 17.643 L 108.526 17.643 A 6.209 6.209 0 0 1 107.15 19.339 Q 105.844 20.441 103.988 20.536 A 6.948 6.948 0 0 1 103.634 20.545 A 6.445 6.445 0 0 1 102.292 20.413 Q 101.436 20.231 100.789 19.796 A 3.679 3.679 0 0 1 100.277 19.381 Q 99.08 18.217 99.08 16.092 Q 99.08 13.798 100.581 12.6 A 5.006 5.006 0 0 1 102.15 11.775 Q 103.322 11.388 104.916 11.369 Z M 60.69 20.275 L 56.979 20.275 A 0.992 0.992 0 0 1 56.95 20.162 Q 56.91 19.963 56.87 19.543 A 21.556 21.556 0 0 1 56.844 19.246 A 27.359 27.359 0 0 1 56.814 18.85 Q 56.776 18.284 56.776 17.88 L 56.709 17.88 A 4.336 4.336 0 0 1 53.63 20.367 A 7.131 7.131 0 0 1 51.986 20.545 Q 49.388 20.545 47.988 18.537 Q 46.942 17.038 46.678 14.625 A 15.974 15.974 0 0 1 46.588 12.887 A 14.711 14.711 0 0 1 46.733 10.752 Q 47.052 8.582 48.073 7.202 A 4.791 4.791 0 0 1 51.586 5.231 A 6.812 6.812 0 0 1 52.29 5.195 A 6.391 6.391 0 0 1 53.59 5.321 A 4.685 4.685 0 0 1 55.005 5.853 A 4.147 4.147 0 0 1 56.518 7.394 A 5.246 5.246 0 0 1 56.743 7.827 L 56.776 7.827 L 56.743 5.398 L 56.743 0 L 60.588 0 L 60.588 17.036 Q 60.588 17.987 60.636 19.161 A 81.046 81.046 0 0 0 60.69 20.275 Z M 119.624 20.275 L 115.779 20.275 L 115.779 8.94 A 76.926 76.926 0 0 0 115.777 8.358 Q 115.77 7.55 115.747 6.955 A 26.547 26.547 0 0 0 115.745 6.916 A 160.887 160.887 0 0 0 115.713 6.194 Q 115.695 5.806 115.677 5.465 L 119.321 5.465 Q 119.355 5.701 119.439 6.966 A 94.489 94.489 0 0 1 119.472 7.479 Q 119.511 8.123 119.52 8.459 A 6.583 6.583 0 0 1 119.523 8.636 L 119.557 8.636 Q 120.13 7.084 120.569 6.443 A 3.232 3.232 0 0 1 121.03 5.902 A 2.526 2.526 0 0 1 121.598 5.499 A 2.524 2.524 0 0 1 122.199 5.286 Q 122.601 5.195 123.099 5.195 A 4.431 4.431 0 0 1 123.554 5.217 Q 123.776 5.24 123.962 5.287 A 1.837 1.837 0 0 1 124.28 5.398 L 124.28 8.602 Q 123.561 8.448 122.999 8.412 A 5.183 5.183 0 0 0 122.661 8.4 A 2.881 2.881 0 0 0 121.628 8.578 Q 120.934 8.842 120.463 9.498 A 3.25 3.25 0 0 0 120.417 9.564 A 3.864 3.864 0 0 0 119.936 10.589 Q 119.634 11.552 119.625 12.932 A 13.081 13.081 0 0 0 119.624 13.022 L 119.624 20.275 Z M 36.399 15.149 A 10.47 10.47 0 0 0 36.637 12.853 Q 36.637 11.157 36.235 9.824 A 6.361 6.361 0 0 0 34.714 7.169 A 5.82 5.82 0 0 0 33.735 6.362 Q 32.716 5.693 31.368 5.408 A 10.557 10.557 0 0 0 29.181 5.195 Q 27.936 5.195 26.884 5.447 A 6.465 6.465 0 0 0 23.665 7.236 A 6.404 6.404 0 0 0 23.192 7.785 Q 22.283 8.966 21.925 10.576 A 10.479 10.479 0 0 0 21.692 12.853 Q 21.692 16.463 23.665 18.504 A 6.452 6.452 0 0 0 26.833 20.287 A 9.512 9.512 0 0 0 29.114 20.545 A 9.869 9.869 0 0 0 31.254 20.325 A 6.631 6.631 0 0 0 34.629 18.504 Q 35.947 17.164 36.399 15.149 Z M 43.485 20.275 L 39.639 20.275 L 39.639 0 L 43.485 0 L 43.485 20.275 Z M 130.521 20.275 L 126.675 20.275 L 126.675 5.465 L 130.521 5.465 L 130.521 20.275 Z M 32.588 12.853 A 12.759 12.759 0 0 0 32.524 11.522 Q 32.353 9.899 31.728 9.041 A 2.785 2.785 0 0 0 29.689 7.884 A 4.036 4.036 0 0 0 29.249 7.86 A 3.422 3.422 0 0 0 27.533 8.266 Q 25.74 9.284 25.74 12.853 Q 25.74 15.316 26.6 16.614 A 2.919 2.919 0 0 0 27.492 17.502 Q 28.154 17.913 29.046 17.913 A 3.437 3.437 0 0 0 30.788 17.496 Q 32.176 16.698 32.494 14.371 A 11.255 11.255 0 0 0 32.588 12.853 Z M 56.81 12.786 A 11.385 11.385 0 0 0 56.733 11.413 Q 56.652 10.748 56.486 10.2 A 4.453 4.453 0 0 0 56 9.108 Q 55.191 7.827 53.639 7.827 A 3.028 3.028 0 0 0 52.668 7.974 Q 51.832 8.256 51.345 9.075 A 4.261 4.261 0 0 0 50.93 10.062 Q 50.648 11.031 50.609 12.432 A 16.507 16.507 0 0 0 50.603 12.887 A 12.582 12.582 0 0 0 50.708 14.595 Q 50.97 16.491 51.879 17.304 A 2.493 2.493 0 0 0 53.605 17.913 A 2.741 2.741 0 0 0 54.833 17.644 Q 55.395 17.367 55.813 16.805 A 3.642 3.642 0 0 0 55.967 16.581 Q 56.81 15.248 56.81 12.786 Z M 92.569 14.169 L 92.569 13.427 L 90.579 13.46 A 13.992 13.992 0 0 0 89.954 13.505 Q 89.356 13.561 88.972 13.664 A 2.265 2.265 0 0 0 88.673 13.764 A 1.823 1.823 0 0 0 88.119 14.121 A 1.68 1.68 0 0 0 87.829 14.489 A 1.887 1.887 0 0 0 87.635 14.974 Q 87.543 15.329 87.543 15.788 A 3.579 3.579 0 0 0 87.586 16.363 Q 87.688 16.989 88.032 17.357 A 1.626 1.626 0 0 0 89.06 17.864 A 2.271 2.271 0 0 0 89.33 17.88 A 2.869 2.869 0 0 0 90.984 17.373 A 3.431 3.431 0 0 0 92.093 16.113 A 4.067 4.067 0 0 0 92.147 16.007 A 4.122 4.122 0 0 0 92.569 14.169 Z M 108.121 14.169 L 108.121 13.427 L 106.13 13.46 A 13.992 13.992 0 0 0 105.505 13.505 Q 104.908 13.561 104.524 13.664 A 2.265 2.265 0 0 0 104.224 13.764 A 1.823 1.823 0 0 0 103.671 14.121 A 1.68 1.68 0 0 0 103.381 14.489 A 1.887 1.887 0 0 0 103.186 14.974 Q 103.094 15.329 103.094 15.788 A 3.579 3.579 0 0 0 103.137 16.363 Q 103.24 16.989 103.584 17.357 A 1.626 1.626 0 0 0 104.612 17.864 A 2.271 2.271 0 0 0 104.882 17.88 A 2.869 2.869 0 0 0 106.535 17.373 A 3.431 3.431 0 0 0 107.645 16.113 A 4.067 4.067 0 0 0 107.699 16.007 A 4.122 4.122 0 0 0 108.121 14.169 Z M 130.521 2.8 L 126.675 2.8 L 126.675 0 L 130.521 0 L 130.521 2.8 Z" vector-effect="non-scaling-stroke"/></g></svg>